<svg width="50" height="40" viewBox="0 0 50 40" fill="none" xmlns="http://www.w3.org/2000/svg">
<path d="M9.375 2H48V30.5263C48 34.6738 44.6784 38 40.625 38H2V9.47368C2 5.32629 5.3216 2 9.375 2Z" fill="#E0E0E0" stroke="#1D1D1D" stroke-width="4"/>
<path d="M19.7 28.4211L16.2 21.8526H15.675V28.4211H10.775V10.6105H18.5C19.9167 10.6105 21.1167 10.8632 22.1 11.3684C23.0833 11.8569 23.825 12.539 24.325 13.4147C24.825 14.2737 25.075 15.2421 25.075 16.32C25.075 17.5326 24.7417 18.6021 24.075 19.5284C23.425 20.4379 22.4667 21.0863 21.2 21.4737L25.175 28.4211H19.7ZM15.675 18.4674H18.1C18.7667 18.4674 19.2667 18.3074 19.6 17.9874C19.9333 17.6674 20.1 17.2042 20.1 16.5979C20.1 16.0253 19.925 15.579 19.575 15.259C19.2417 14.9221 18.75 14.7537 18.1 14.7537H15.675V18.4674ZM39.8783 10.6105V14.5516H32.8283V17.6842H38.0283V21.4484H32.8283V28.4211H27.9283V10.6105H39.8783Z" fill="#1D1D1D"/>
</svg>
