<svg width="85" height="85" viewBox="0 0 85 85" fill="none" xmlns="http://www.w3.org/2000/svg">
<path d="M0 15C0 6.71573 6.71573 0 15 0H70C78.2843 0 85 6.71573 85 15V70C85 78.2843 78.2843 85 70 85H15C6.71573 85 0 78.2843 0 70V15Z" fill="white"/>
<path d="M21 17.4H73.6V56C73.6 61.8543 68.8543 66.6 63 66.6H10.4V28C10.4 22.1458 15.1458 17.4 21 17.4Z" fill="#8BDF6E" stroke="#1D1D1D" stroke-width="4"/>
<path d="M34.8768 53.2L30.1728 44.464H29.4672V53.2H22.8816V29.512H33.264C35.168 29.512 36.7808 29.848 38.1024 30.52C39.424 31.1696 40.4208 32.0768 41.0928 33.2416C41.7648 34.384 42.1008 35.672 42.1008 37.1056C42.1008 38.7184 41.6528 40.1408 40.7568 41.3728C39.8832 42.5824 38.5952 43.4448 36.8928 43.96L42.2352 53.2H34.8768ZM29.4672 39.9616H32.7264C33.6224 39.9616 34.2944 39.7488 34.7424 39.3232C35.1904 38.8976 35.4144 38.2816 35.4144 37.4752C35.4144 36.7136 35.1792 36.12 34.7088 35.6944C34.2608 35.2464 33.6 35.0224 32.7264 35.0224H29.4672V39.9616ZM61.9965 29.512V34.7536H52.5213V38.92H59.5101V43.9264H52.5213V53.2H45.9357V29.512H61.9965Z" fill="#1D1D1D"/>
</svg>
